<svg xmlns="http://www.w3.org/2000/svg" viewBox="18 20 164 164" width="256" height="256">
<defs>
    <radialGradient id="bg2" cx=".5" cy=".38" r=".75"><stop offset="0" stop-color="#ffc5dc"/><stop offset=".65" stop-color="#ff9ec4"/><stop offset="1" stop-color="#af6c86"/></radialGradient>
    <linearGradient id="hg3" gradientUnits="userSpaceOnUse" x1="0" y1="30" x2="0" y2="150"><stop offset="0" stop-color="#504d58"/><stop offset=".55" stop-color="#34303d"/><stop offset="1" stop-color="#2e2934"/></linearGradient>
    <clipPath id="fc1"><path d="M62,90 C62,58 138,58 138,90 L138,109 C137,124 118,142 100,150 C82,142 63,124 62,109 Z"/></clipPath>
  </defs>
<rect x="0" y="0" width="200" height="200" fill="url(#bg2)"/>
<g opacity=".15" fill="#fff"><path d="M0,70 L70,0 L90,0 L0,90 Z"/><path d="M0,120 L120,0 L130,0 L0,130 Z"/><path d="M130,210 L210,130 L210,160 L160,210 Z"/></g>
<g fill="#fff" opacity=".8"><path d="M34,46 l2,6 l6,2 l-6,2 l-2,6 l-2,-6 l-6,-2 l6,-2 Z"/><path d="M166,50 l1.5,4 l4,1.5 l-4,1.5 l-1.5,4 l-1.5,-4 l-4,-1.5 l4,-1.5 Z"/><circle cx="158" cy="32" r="1.6"/><circle cx="42" cy="76" r="1.2"/></g>
<path d="M58,70 L52,30 L84,50 Z" fill="#34303d" stroke="#241c24" stroke-width="1.6" stroke-linejoin="round"/><path d="M61,63 L57,39 L77,52 Z" fill="#f7b2c1"/>
            <path d="M142,70 L148,30 L116,50 Z" fill="#34303d" stroke="#241c24" stroke-width="1.6" stroke-linejoin="round"/><path d="M139,63 L143,39 L123,52 Z" fill="#f7b2c1"/>
<path d="M47,98 C41,56 70,30 100,30 C130,30 159,56 153,98 C157,124 153,144 146,154 Q138,158 132,150 L68,150 Q62,158 54,154 C47,144 43,124 47,98 Z" fill="#2c2631" stroke="#241c24" stroke-width="1.6" stroke-linejoin="round"/>
<path d="M88,136 L88,170 Q100,176 112,170 L112,136 Z" fill="#ffe6d5" stroke="#9f6a5d" stroke-width="1.4"/>
<path d="M88,138 Q100,160 112,138 L112,154 Q100,166 88,154 Z" fill="#f2c4b1"/>
<path d="M60,176 C62,160 80,156 100,156 C120,156 138,160 140,176 Z" fill="#d1b872" stroke="#766343" stroke-width="1.5"/><path d="M14,200 C20,178 52,166 84,163 L116,163 C148,166 180,178 186,200 Z" fill="#ffe28a" stroke="#766343" stroke-width="1.6"/><path d="M82,164 Q100,180 118,164" fill="none" stroke="#766343" stroke-width="1.6"/>
         <path d="M92,172 L90,194 M108,172 L110,194" stroke="#fff" stroke-width="2" stroke-linecap="round"/>
         <circle cx="90" cy="195" r="2.2" fill="#fff"/><circle cx="110" cy="195" r="2.2" fill="#fff"/>
<path d="M63,100 C54,96 53,112 58,118 C60,121 63,121 64,119 Z" fill="#ffe6d5" stroke="#9f6a5d" stroke-width="1.4"/><path d="M137,100 C146,96 147,112 142,118 C140,121 137,121 136,119 Z" fill="#ffe6d5" stroke="#9f6a5d" stroke-width="1.4"/>
<path d="M62,90 C62,58 138,58 138,90 L138,109 C137,124 118,142 100,150 C82,142 63,124 62,109 Z" fill="#ffe6d5" stroke="#9f6a5d" stroke-width="1.5"/>
<g clip-path="url(#fc1)" fill="#f2c4b1" opacity=".9"><path d="M71,56 C70.4,86.31212962962964 43.24,93.47681481481482 58,111.11296296296297 C59.32000000000001,87.96551851851852 88.4,86.31212962962964 89,56 Z" transform="translate(1,6)"/><path d="M111,56 C111.6,84.02465020576132 138.04,90.64865843621399 142,106.95390946502057 C152.92000000000002,85.55326748971193 129.6,84.02465020576132 129,56 Z" transform="translate(1,6)"/><path d="M76.66666666666666,52.66666666666667 C76.26666666666665,82.3808316186557 58,89.40417969821675 72,106.69242112482854 C75.6,84.00160425240055 96.26666666666665,82.3808316186557 96.66666666666666,52.66666666666667 Z" transform="translate(1,6)"/><path d="M103.33333333333334,52.66666666666667 C103.73333333333335,78.94555727023321 121.19999999999999,85.15693141289438 128,100.44646776406037 C138,80.37895130315502 123.73333333333335,78.94555727023321 123.33333333333334,52.66666666666667 Z" transform="translate(1,6)"/><path d="M82.33333333333333,49.333333333333336 C82.13333333333333,74.57803155006859 72.76,80.54496021947874 86,95.23278463648833 C91.88000000000001,75.95501508916324 104.13333333333333,74.57803155006859 104.33333333333333,49.333333333333336 Z" transform="translate(1,6)"/><path d="M95.66666666666667,49.333333333333336 C95.86666666666667,78.2517524005487 104.36,85.08701508916323 114,101.91227709190672 C123.08,79.8291207133059 117.86666666666667,78.2517524005487 117.66666666666667,49.333333333333336 Z" transform="translate(1,6)"/><path d="M88,46 C88,71.93459362139919 87.52,78.06458847736626 100,93.15380658436214 C108.16,73.34920781893004 112,71.93459362139919 112,46 Z" transform="translate(1,6)"/><path d="M51,72 C50.7,109.4 50.019999999999996,118.24 60,140 C62.36000000000001,111.44 64.7,109.4 65,72 Z" transform="translate(1,6)"/><path d="M135,72 C135.3,109.4 135.42,118.24 140,140 C147.16,111.44 149.3,109.4 149,72 Z" transform="translate(1,6)"/></g>
<g opacity=".5"><ellipse cx="76" cy="124" rx="8" ry="4" fill="#ff8a9a"/><ellipse cx="124" cy="124" rx="8" ry="4" fill="#ff8a9a"/></g>
    <g stroke="#e0607a" stroke-width=".9" opacity=".55" stroke-linecap="round"><path d="M72,125 L74,121 M76,125 L78,121 M80,125 L82,121"/><path d="M118,125 L120,121 M122,125 L124,121 M126,125 L128,121"/></g>
<g transform="translate(81,93) scale(-1,1) rotate(0)" opacity=".92"><path d="M-11,1 Q0,-4.8 12.5,-0.6 Q0,-2.3 -11,2.4 Z" fill="#261e26"/></g>
<g transform="translate(119,93) scale(1,1) rotate(0)" opacity=".92"><path d="M-11,1 Q0,-4.8 12.5,-0.6 Q0,-2.3 -11,2.4 Z" fill="#261e26"/></g>
<g transform="translate(81,111) scale(-1,1) rotate(0)">
  <defs>
    <clipPath id="ec4"><path d="M-11,0 C-8,-8 4,-11 12,-6.5 C12.5,3 8,12 1,13 C-6,13 -10.5,6 -11,0 Z"/></clipPath>
    <linearGradient id="eg5" x1="0" y1="0" x2="0" y2="1">
      <stop offset="0" stop-color="#6b4f1c"/><stop offset=".42" stop-color="#f0b82a"/><stop offset="1" stop-color="#f8df9f"/>
    </linearGradient>
    <radialGradient id="er6" cx=".5" cy=".85" r=".55"><stop offset="0" stop-color="#fbedca" stop-opacity=".95"/><stop offset="1" stop-color="#fbedca" stop-opacity="0"/></radialGradient>
  </defs>
  <path d="M-11,0 C-8,-8 4,-11 12,-6.5 C12.5,3 8,12 1,13 C-6,13 -10.5,6 -11,0 Z" fill="#fffdfb"/>
  <g clip-path="url(#ec4)">
    <ellipse cx="1.5" cy="2.5" rx="8.2" ry="10.5" fill="url(#eg5)" stroke="#5a421b" stroke-width="1"/>
    <ellipse cx="1.5" cy="6.5" rx="6.5" ry="5.5" fill="url(#er6)"/>
    <ellipse cx="1.7" cy="2.8" rx="3.4" ry="5" fill="#453118"/>
    <path d="M-11,0 C-8,-8 4,-11 12,-6.5 L12,-2 C4,-7 -8,-5 -11,4 Z" fill="#1e141a" opacity=".3"/>
    <ellipse cx="-2.6" cy="-1.5" rx="2.9" ry="3.7" fill="#fff"/>
    <circle cx="5.2" cy="7" r="1.5" fill="#fff" opacity=".95"/>
    <circle cx="-4.5" cy="7.5" r=".9" fill="#fff" opacity=".7"/>
  </g>
  <path d="M-12.2,0.5 C-9.5,-9.5 3.5,-13.8 12.8,-8.6 C15.8,-7 17.8,-4.6 18.2,-1.8 C16.4,-3.4 14.6,-4 12.6,-4.2 C4,-9.3 -8,-7.2 -10.8,2 Z" fill="#1e141a"/><path d="M15.5,-6.5 L20.5,-8.8 L16.8,-4.2 Z M12.5,-8.8 L16.6,-12.4 L14.6,-7.6 Z" fill="#1e141a"/>
  <path d="M-6,-12.5 Q4,-16.5 12.5,-11.5" fill="none" stroke="#1e141a" stroke-width=".9" stroke-linecap="round" opacity=".55"/>
  <path d="M2.5,13.4 Q9,12 12.3,6.5" fill="none" stroke="#1e141a" stroke-width="1.1" stroke-linecap="round" opacity=".8"/>
  <path d="M11.8,8.5 L14.2,9.8 M9.8,11 L11.8,12.8" stroke="#1e141a" stroke-width=".9" stroke-linecap="round"/>
</g>
<g transform="translate(119,111) scale(1,1) rotate(0)">
  <defs>
    <clipPath id="ec7"><path d="M-11,0 C-8,-8 4,-11 12,-6.5 C12.5,3 8,12 1,13 C-6,13 -10.5,6 -11,0 Z"/></clipPath>
    <linearGradient id="eg8" x1="0" y1="0" x2="0" y2="1">
      <stop offset="0" stop-color="#6b4f1c"/><stop offset=".42" stop-color="#f0b82a"/><stop offset="1" stop-color="#f8df9f"/>
    </linearGradient>
    <radialGradient id="er9" cx=".5" cy=".85" r=".55"><stop offset="0" stop-color="#fbedca" stop-opacity=".95"/><stop offset="1" stop-color="#fbedca" stop-opacity="0"/></radialGradient>
  </defs>
  <path d="M-11,0 C-8,-8 4,-11 12,-6.5 C12.5,3 8,12 1,13 C-6,13 -10.5,6 -11,0 Z" fill="#fffdfb"/>
  <g clip-path="url(#ec7)">
    <ellipse cx="1.5" cy="2.5" rx="8.2" ry="10.5" fill="url(#eg8)" stroke="#5a421b" stroke-width="1"/>
    <ellipse cx="1.5" cy="6.5" rx="6.5" ry="5.5" fill="url(#er9)"/>
    <ellipse cx="1.7" cy="2.8" rx="3.4" ry="5" fill="#453118"/>
    <path d="M-11,0 C-8,-8 4,-11 12,-6.5 L12,-2 C4,-7 -8,-5 -11,4 Z" fill="#1e141a" opacity=".3"/>
    <ellipse cx="-2.6" cy="-1.5" rx="2.9" ry="3.7" fill="#fff"/>
    <circle cx="5.2" cy="7" r="1.5" fill="#fff" opacity=".95"/>
    <circle cx="-4.5" cy="7.5" r=".9" fill="#fff" opacity=".7"/>
  </g>
  <path d="M-12.2,0.5 C-9.5,-9.5 3.5,-13.8 12.8,-8.6 C15.8,-7 17.8,-4.6 18.2,-1.8 C16.4,-3.4 14.6,-4 12.6,-4.2 C4,-9.3 -8,-7.2 -10.8,2 Z" fill="#1e141a"/><path d="M15.5,-6.5 L20.5,-8.8 L16.8,-4.2 Z M12.5,-8.8 L16.6,-12.4 L14.6,-7.6 Z" fill="#1e141a"/>
  <path d="M-6,-12.5 Q4,-16.5 12.5,-11.5" fill="none" stroke="#1e141a" stroke-width=".9" stroke-linecap="round" opacity=".55"/>
  <path d="M2.5,13.4 Q9,12 12.3,6.5" fill="none" stroke="#1e141a" stroke-width="1.1" stroke-linecap="round" opacity=".8"/>
  <path d="M11.8,8.5 L14.2,9.8 M9.8,11 L11.8,12.8" stroke="#1e141a" stroke-width=".9" stroke-linecap="round"/>
</g>
<path d="M99.5,126 L101.2,128.2" stroke="#9f6a5d" stroke-width="1.3" stroke-linecap="round" opacity=".75"/>
<path d="M93,135 Q96.5,139.2 100,136 Q103.5,139.2 107,135" fill="none" stroke="#9f6a5d" stroke-width="1.4" stroke-linecap="round" stroke-linejoin="round"/>
<path d="M103.5,135.8 L105,139.5 L106.5,135.4 Z" fill="#fff" stroke="#9f6a5d" stroke-width=".6"/>
<path d="M51,72 C50.7,109.4 50.019999999999996,118.24 60,140 C62.36000000000001,111.44 64.7,109.4 65,72 Z" fill="url(#hg3)" stroke="#241c24" stroke-width="1.4" stroke-linejoin="round"/>
<path d="M135,72 C135.3,109.4 135.42,118.24 140,140 C147.16,111.44 149.3,109.4 149,72 Z" fill="url(#hg3)" stroke="#241c24" stroke-width="1.4" stroke-linejoin="round"/>
<path d="M71,56 C70.4,86.31212962962964 43.24,93.47681481481482 58,111.11296296296297 C59.32000000000001,87.96551851851852 88.4,86.31212962962964 89,56 Z" fill="url(#hg3)" stroke="#241c24" stroke-width="1.4" stroke-linejoin="round"/>
<path d="M111,56 C111.6,84.02465020576132 138.04,90.64865843621399 142,106.95390946502057 C152.92000000000002,85.55326748971193 129.6,84.02465020576132 129,56 Z" fill="url(#hg3)" stroke="#241c24" stroke-width="1.4" stroke-linejoin="round"/>
<path d="M76.66666666666666,52.66666666666667 C76.26666666666665,82.3808316186557 58,89.40417969821675 72,106.69242112482854 C75.6,84.00160425240055 96.26666666666665,82.3808316186557 96.66666666666666,52.66666666666667 Z" fill="url(#hg3)" stroke="#241c24" stroke-width="1.4" stroke-linejoin="round"/>
<path d="M103.33333333333334,52.66666666666667 C103.73333333333335,78.94555727023321 121.19999999999999,85.15693141289438 128,100.44646776406037 C138,80.37895130315502 123.73333333333335,78.94555727023321 123.33333333333334,52.66666666666667 Z" fill="url(#hg3)" stroke="#241c24" stroke-width="1.4" stroke-linejoin="round"/>
<path d="M82.33333333333333,49.333333333333336 C82.13333333333333,74.57803155006859 72.76,80.54496021947874 86,95.23278463648833 C91.88000000000001,75.95501508916324 104.13333333333333,74.57803155006859 104.33333333333333,49.333333333333336 Z" fill="url(#hg3)" stroke="#241c24" stroke-width="1.4" stroke-linejoin="round"/>
<path d="M95.66666666666667,49.333333333333336 C95.86666666666667,78.2517524005487 104.36,85.08701508916323 114,101.91227709190672 C123.08,79.8291207133059 117.86666666666667,78.2517524005487 117.66666666666667,49.333333333333336 Z" fill="url(#hg3)" stroke="#241c24" stroke-width="1.4" stroke-linejoin="round"/>
<path d="M88,46 C88,71.93459362139919 87.52,78.06458847736626 100,93.15380658436214 C108.16,73.34920781893004 112,71.93459362139919 112,46 Z" fill="url(#hg3)" stroke="#241c24" stroke-width="1.4" stroke-linejoin="round"/>
<path d="M46,100 C40,56 68,28 100,28 C132,28 160,56 154,100 C146,78 128,62 100,62 C72,62 54,78 46,100 Z" fill="url(#hg3)"/>
<path d="M46,100 C40,56 68,28 100,28 C132,28 160,56 154,100" fill="none" stroke="#241c24" stroke-width="1.6"/>
<path d="M60,66 L64.0,61.5 L68.0,58.7 L72.0,56.3 L76.0,54.3 L80.0,52.5 L84.0,51.1 L88.0,49.9 L92.0,49.1 L96.0,48.7 L100.0,48.5 L104.0,48.7 L108.0,49.1 L112.0,49.9 L116.0,51.1 L120.0,52.5 L124.0,54.3 L128.0,56.3 L132.0,58.7 L136.0,61.5 L140.0,64.5 L140.0,69.0 L136.0,67.7 L132.0,63.2 L128.0,63.9 L124.0,58.8 L120.0,61.5 L116.0,55.6 L112.0,60.3 L108.0,53.6 L104.0,60.5 L100.0,53.0 L96.0,60.5 L92.0,53.6 L88.0,60.3 L84.0,55.6 L80.0,61.5 L76.0,58.8 L72.0,63.9 L68.0,63.2 L64.0,67.7 L60.0,69.0 Z" fill="#646b83" opacity="0.55"/>
<g opacity=".45"><g transform="translate(81,93) scale(-1,1) rotate(0)" opacity=".92"><path d="M-11,1 Q0,-4.8 12.5,-0.6 Q0,-2.3 -11,2.4 Z" fill="#261e26"/></g><g transform="translate(119,93) scale(1,1) rotate(0)" opacity=".92"><path d="M-11,1 Q0,-4.8 12.5,-0.6 Q0,-2.3 -11,2.4 Z" fill="#261e26"/></g></g>


</svg>